HIERARCHY
ROOT Hips
{
	OFFSET 0.00000 0.00000 0.00000
	CHANNELS 6 Xposition Yposition Zposition Zrotation Yrotation Xrotation 
	JOINT LHipJoint
	{
		OFFSET 0 0 0
		CHANNELS 3 Zrotation Yrotation Xrotation
		JOINT LeftUpLeg
		{
			OFFSET 1.37590 -1.78394 0.89329
			CHANNELS 3 Zrotation Yrotation Xrotation
			JOINT LeftLeg
			{
				OFFSET 2.47928 -6.81178 0.00000
				CHANNELS 3 Zrotation Yrotation Xrotation
				JOINT LeftFoot
				{
					OFFSET 2.63345 -7.23535 0.00000
					CHANNELS 3 Zrotation Yrotation Xrotation
					JOINT LeftToeBase
					{
						OFFSET 0.23938 -0.65768 2.27012
						CHANNELS 3 Zrotation Yrotation Xrotation
						End Site
						{
							OFFSET 0.00000 -0.00000 1.18363
						}
					}
				}
			}
		}
	}
	JOINT RHipJoint
	{
		OFFSET 0 0 0
		CHANNELS 3 Zrotation Yrotation Xrotation
		JOINT RightUpLeg
		{
			OFFSET -1.33617 -1.78394 0.89329
			CHANNELS 3 Zrotation Yrotation Xrotation
			JOINT RightLeg
			{
				OFFSET -2.56922 -7.05888 0.00000
				CHANNELS 3 Zrotation Yrotation Xrotation
				JOINT RightFoot
				{
					OFFSET -2.56568 -7.04915 0.00000
					CHANNELS 3 Zrotation Yrotation Xrotation
					JOINT RightToeBase
					{
						OFFSET -0.27533 -0.75646 2.18105
						CHANNELS 3 Zrotation Yrotation Xrotation
						End Site
						{
							OFFSET -0.00000 -0.00000 1.15233
						}
					}
				}
			}
		}
	}
	JOINT LowerBack
	{
		OFFSET 0 0 0
		CHANNELS 3 Zrotation Yrotation Xrotation
		JOINT Spine
		{
			OFFSET 0.06190 2.15152 -0.00935
			CHANNELS 3 Zrotation Yrotation Xrotation
			JOINT Spine1
			{
				OFFSET 0.06334 2.15332 0.00872
				CHANNELS 3 Zrotation Yrotation Xrotation
				JOINT Neck
				{
					OFFSET 0 0 0
					CHANNELS 3 Zrotation Yrotation Xrotation
					JOINT Neck1
					{
						OFFSET -0.04202 1.66908 0.23524
						CHANNELS 3 Zrotation Yrotation Xrotation
						JOINT Head
						{
							OFFSET 0.07510 1.69357 -0.24440
							CHANNELS 3 Zrotation Yrotation Xrotation
							End Site
							{
								OFFSET 0.02556 1.71719 -0.11000
							}
						}
					}
				}
				JOINT LeftShoulder
				{
					OFFSET 0 0 0
					CHANNELS 3 Zrotation Yrotation Xrotation
					JOINT LeftArm
					{
						OFFSET 3.67168 1.26306 -0.41342
						CHANNELS 3 Zrotation Yrotation Xrotation
						JOINT LeftForeArm
						{
							OFFSET 4.68510 -0.00000 -0.00000
							CHANNELS 3 Zrotation Yrotation Xrotation
							JOINT LeftHand
							{
								OFFSET 3.39626 -0.00000 -0.00000
								CHANNELS 3 Zrotation Yrotation Xrotation
								JOINT LeftFingerBase
								{
									OFFSET 0 0 0
									CHANNELS 3 Zrotation Yrotation Xrotation
									JOINT LeftHandIndex1
									{
										OFFSET 0.48608 -0.00000 -0.00000
										CHANNELS 3 Zrotation Yrotation Xrotation
										End Site
										{
											OFFSET 0.39189 -0.00000 -0.00000
										}
									}
								}
								JOINT LThumb
								{
									OFFSET 0 0 0
									CHANNELS 3 Zrotation Yrotation Xrotation
									End Site
									{
										OFFSET 0.39787 -0.00000 0.39787
									}
								}
							}
						}
					}
				}
				JOINT RightShoulder
				{
					OFFSET 0 0 0
					CHANNELS 3 Zrotation Yrotation Xrotation
					JOINT RightArm
					{
						OFFSET -3.04136 1.42992 -0.76390
						CHANNELS 3 Zrotation Yrotation Xrotation
						JOINT RightForeArm
						{
							OFFSET -5.55576 -0.00000 -0.00000
							CHANNELS 3 Zrotation Yrotation Xrotation
							JOINT RightHand
							{
								OFFSET -3.32774 -0.00000 -0.00000
								CHANNELS 3 Zrotation Yrotation Xrotation
								JOINT RightFingerBase
								{
									OFFSET 0 0 0
									CHANNELS 3 Zrotation Yrotation Xrotation
									JOINT RightHandIndex1
									{
										OFFSET -0.50763 -0.00000 -0.00000
										CHANNELS 3 Zrotation Yrotation Xrotation
										End Site
										{
											OFFSET -0.40926 -0.00000 -0.00000
										}
									}
								}
								JOINT RThumb
								{
									OFFSET 0 0 0
									CHANNELS 3 Zrotation Yrotation Xrotation
									End Site
									{
										OFFSET -0.41551 -0.00000 0.41551
									}
								}
							}
						}
					}
				}
			}
		}
	}
}
MOTION
Frames: 8
Frame Time: 0.0444444
0.00 0.00 0.00 0 0 0 0 0 0 -21 0 0 0 0 0 0 0 0 0 0 0 0 0 0 21 0 0 0 0 0 0 0 0 0 0 0 0 0 0 0 0 0 0 0 0 0 0 -16 0 0 21 0 0 11 0 0 0 -8 0 0 0 0 0 0 0 0 0 0 0 0 0 0 0 0 0 0 0 0 8 0 0 0 0 0 0 0 0 0 0 0 0 0 0 0 0 0
0.00 0.00 0.00 -166.1620 -86.2857 172.1800 0.0000 0.0000 0.0000 -20.9302 -6.4835 -4.1827 0.4225 4.1718 11.5605 0.3423 -0.3321 -10.9398 0.0512 1.4599 4.0152 0.0000 0.0000 0.0000 15.2971 2.7785 -34.7848 -10.0165 -17.4191 59.5434 0.5427 -14.3347 -11.9609 -0.1222 -2.2534 6.2065 -1.5545 -0.7308 -0.2798 1.4367 -0.9997 -2.8794 2.3696 -0.4584 -2.7477 -5.8722 -1.3852 -10.4899 10.5200 -2.4717 11.5217 4.0871 -0.7954 5.3906 0.0000 -0.0000 0.0000 -84.0737 -22.1031 34.3388 99.0932 -59.6852 -67.8666 -0.0000 0.0000 -1.8194 18.1712 14.7265 4.7695 -7.1250 0.0000 -0.0000 -8.7405 45.2609 -0.0567 0.0000 -0.0000 0.0000 75.7162 22.6868 23.7583 -104.7897 59.1572 -72.7720 0.0000 -0.0000 -5.7168 -25.2133 -24.4485 11.0272 7.1250 -0.0000 -0.0000 4.6515 -56.5997 -1.3247
0.00 0.00 0.00 -172.4270 -85.9314 178.2090 0.0000 0.0000 0.0000 -21.9119 -5.6240 -2.1605 0.4089 4.1051 11.3727 0.4469 -0.3980 -12.4960 0.0368 1.2381 3.4042 0.0000 0.0000 0.0000 14.8889 3.4831 -36.9558 -7.8761 -16.0273 52.1151 0.5408 -15.1171 -14.0343 -0.1040 -2.0790 5.7242 -1.8043 -1.0185 -0.2586 1.6107 -1.3829 -2.7872 2.6956 -0.6438 -2.6353 -5.8376 -1.4812 -10.5136 10.5583 -2.7070 12.4376 4.0866 -0.8981 5.6984 -0.0000 -0.0000 0.0000 -84.9690 -27.7121 31.6390 81.1654 -59.7030 -52.3567 -0.0000 0.0000 -4.5127 16.1741 16.6300 4.7450 -7.1250 0.0000 -0.0000 -11.0894 46.9471 -0.5392 -0.0000 -0.0000 0.0000 75.1275 27.4237 21.8442 -85.7222 59.9307 -56.2962 0.0000 -0.0000 -10.0192 -21.1466 -27.4805 10.1201 7.1250 -0.0000 -0.0000 10.4454 -58.8226 -3.5538
0.00 0.00 0.00 -178.0710 -85.7669 184.0430 0.0000 0.0000 0.0000 -22.9916 -4.5246 0.2139 0.4112 4.1161 11.4036 0.6278 -0.9248 -14.6811 0.0157 0.8091 2.2237 0.0000 0.0000 0.0000 14.7420 3.9174 -37.9371 -4.0268 -12.1959 36.4287 0.6380 -15.7808 -13.7095 -0.1716 -2.6682 7.3562 -1.9514 -1.3288 -0.5967 1.9597 -1.7944 -2.9068 3.1384 -0.8453 -2.5297 -6.0611 -1.8152 -10.3756 10.7250 -3.2788 13.5183 4.1449 -1.1730 6.0668 -0.0000 0.0000 0.0000 -86.7785 -34.2558 28.0445 53.0515 -54.1545 -28.6298 -0.0000 0.0000 -6.3115 14.3825 18.3482 4.6150 -7.1250 0.0000 -0.0000 -13.3105 48.4194 -1.1414 -0.0000 0.0000 0.0000 74.2071 31.2123 20.0627 -62.6221 56.9691 -36.5313 0.0000 -0.0000 -13.3077 -17.8873 -30.7408 9.3679 7.1250 -0.0000 -0.0000 16.1006 -61.2636 -6.4715
0.00 0.00 0.00 -185.6580 -86.1421 192.1360 0.0000 0.0000 0.0000 -23.7489 -3.5008 1.9649 0.4080 4.1004 11.3593 0.7752 -2.0330 -16.0696 0.0023 0.3113 0.8553 0.0000 0.0000 0.0000 13.8304 5.4360 -36.1728 -1.4056 -7.4993 21.2033 0.5272 -14.4098 -12.5455 -0.0435 -1.3456 3.7002 -2.3153 -1.5474 -0.8702 2.2837 -2.0903 -3.2687 3.6815 -0.9784 -2.7070 -6.2901 -2.2415 -10.3416 10.6186 -3.8694 14.0640 4.1046 -1.4755 6.2873 0.0000 -0.0000 0.0000 -88.0736 -37.1871 26.1207 36.5779 -45.9066 -15.9362 -0.0000 0.0000 -6.5278 14.3837 19.8563 4.9783 -7.1250 0.0000 -0.0000 -13.8591 49.9130 -1.7076 0.0000 -0.0000 0.0000 73.1985 30.9363 19.5641 -51.4077 53.5477 -27.3024 0.0000 -0.0000 -10.4534 -16.8662 -29.4094 8.4677 7.1250 -0.0000 -0.0000 16.2610 -59.7373 -5.9453
0.00 0.00 0.00 -265.4970 -88.4943 272.4690 0.0000 0.0000 0.0000 -23.7731 -2.4758 7.5103 0.8019 5.7153 15.9606 0.8433 -6.7051 -16.3904 0.4751 -4.4207 -12.2632 0.0000 0.0000 0.0000 11.2574 9.7042 -35.5266 -1.1037 -6.6753 18.7568 0.5706 -13.4255 -7.3624 -0.0004 0.1323 -0.3634 -2.3176 -3.2131 -0.7263 3.3720 -4.3044 -2.9207 4.8152 -2.0929 -2.1707 -6.7507 -2.9110 -12.5158 10.1228 -4.4294 13.6059 3.9526 -1.7314 6.5747 0.0000 -0.0000 0.0000 -86.8762 -29.8767 27.7214 13.4159 -21.8936 -2.6063 -0.0000 -0.0000 27.0792 13.9609 16.7151 4.0898 -7.1250 0.0000 -0.0000 -13.1588 46.7398 -0.5747 0.0000 -0.0000 0.0000 75.6185 17.6201 24.0922 -44.9351 50.7367 -22.1885 0.0000 -0.0000 -4.6720 -17.7233 -26.3913 8.0852 7.1250 -0.0000 -0.0000 13.5077 -56.9828 -4.0162
0.00 0.00 0.00 -458.8600 -88.5409 466.3560 0.0000 0.0000 0.0000 -18.7565 -3.8235 4.1702 2.8576 10.4610 30.4827 -0.0468 -5.5967 -2.3030 1.7409 -8.3041 -23.6417 0.0000 0.0000 0.0000 16.6525 11.3372 -31.4163 -1.7826 -8.3977 23.9285 0.3439 -10.6400 -1.1819 -0.8341 -5.8261 16.2806 1.1650 -3.6989 -0.7295 5.4854 -4.9888 -2.3791 5.0367 -2.5283 -1.6489 -6.3353 -3.2614 -16.5063 8.8056 -4.7108 15.8668 3.4203 -1.8155 7.9915 0.0000 0.0000 0.0000 -91.6815 -5.4963 23.2626 12.1841 -20.0801 -2.1651 -0.0000 -0.0000 41.9002 11.8561 11.7984 2.4579 -7.1250 0.0000 -0.0000 -13.6453 41.6294 1.1585 0.0000 0.0000 0.0000 78.8376 0.7656 26.0484 -45.0061 50.7715 -22.2435 0.0000 -0.0000 -3.8066 -18.3590 -24.7151 7.8995 7.1250 -0.0000 -0.0000 11.9960 -55.4477 -3.1089
0.00 0.00 0.00 -465.7680 -85.0678 473.1860 0.0000 0.0000 0.0000 -12.2713 -2.4251 -5.4987 6.3522 14.7612 46.3794 0.4621 -1.9825 13.7152 0.2918 -3.4735 -9.6001 0.0000 0.0000 0.0000 22.9678 13.0342 -25.6500 -1.8681 -8.5859 24.5082 0.2751 -9.3723 -5.0401 -0.8432 -5.8570 16.3700 4.4438 -3.1210 0.4456 6.6418 -4.1944 -1.9278 4.4789 -2.2066 -2.0545 -6.3573 -3.9602 -17.8546 8.3788 -5.7456 18.4515 3.1629 -2.2984 9.1801 -0.0000 0.0000 0.0000 -95.9082 10.9843 19.4430 18.3618 -28.6180 -4.7213 -0.0000 -0.0000 23.6599 14.1505 16.7413 4.1537 -7.1250 0.0000 -0.0000 -12.9928 46.7908 -0.5838 -0.0000 0.0000 0.0000 81.4514 -10.5257 25.6723 -59.6429 56.2140 -34.0442 0.0000 -0.0000 -5.0805 -20.0492 -24.8475 8.7184 7.1250 -0.0000 -0.0000 10.3057 -55.9231 -2.7828
